<svg viewBox="0 0 24 24" fill="none" xmlns="http://www.w3.org/2000/svg">
<path d="M14.8679 12.121H16.8267V11.6024H14.8679V10.5648H16.9528V10.0463H14.2571V13.7773H17.033V13.2585H14.8679V12.121Z" fill="currentColor"/>
<path d="M6.09137 8.99854C6.29967 9.61732 6.6461 10.1542 7.12896 10.6268C7.53945 10.1821 7.84798 9.63346 8.04822 8.99854H6.09137Z" fill="currentColor"/>
<path d="M18.8534 5.33922H11.2067L10.77 3H3.66996C2.88688 3 2.25 3.63688 2.25 4.41996V16.4909C2.25 17.2739 2.88688 17.9108 3.66996 17.9108H10.1432L9.62436 20.25H18.8553C19.6384 20.25 20.2753 19.6132 20.2753 18.8301V6.76138C20.2733 5.97634 19.6343 5.33946 18.8534 5.33946V5.33922ZM9.21387 12.5114C8.37676 12.2029 7.68585 11.8105 7.12892 11.3557C6.54607 11.8745 5.81702 12.2569 4.97184 12.4933L4.67943 12.0107C5.50872 11.7924 6.19963 11.464 6.74434 10.9993C6.18154 10.4245 5.78915 9.76168 5.56862 9.00647H4.77747V8.45956H6.84238C6.71427 8.22315 6.54998 7.99505 6.35977 7.77672L6.90644 7.57649C7.09664 7.82268 7.27096 8.11313 7.42523 8.45174H9.39992V8.99865H8.60902C8.35451 9.78173 7.98999 10.4367 7.50738 10.9655C8.04426 11.3941 8.71708 11.7486 9.51019 12.039C9.51214 12.043 9.21387 12.5119 9.21387 12.5119V12.5114ZM19.5724 18.8203H19.5624C19.5624 19.2129 19.2441 19.5312 18.8514 19.5312H10.5157L10.8702 17.903H13.5361L12.0159 9.42919L12.0078 9.47515L11.9438 9.13678L11.9619 9.14485L11.4071 6.04847H18.8617C19.2543 6.04847 19.5726 6.36678 19.5726 6.75943V18.8203H19.5724Z" fill="currentColor"/>
</svg>
