<svg width="20" height="20" viewBox="0 0 20 20" fill="none" xmlns="http://www.w3.org/2000/svg">
<rect width="20" height="20" rx="10" fill="#D8E2FF"/>
<path d="M9.97632 9.05535L12.7384 6.29325C12.9926 6.03906 13.4047 6.03906 13.6589 6.29325V6.29325C13.9131 6.54743 13.9131 6.95955 13.6589 7.21373L10.8968 9.97583L13.6589 12.7379C13.9131 12.9921 13.9131 13.4042 13.6589 13.6584V13.6584C13.4047 13.9126 12.9926 13.9126 12.7384 13.6584L9.97632 10.8963L7.21422 13.6584C6.96003 13.9126 6.54792 13.9126 6.29374 13.6584V13.6584C6.03955 13.4042 6.03955 12.9921 6.29374 12.7379L9.05584 9.97583L6.29374 7.21373C6.03955 6.95955 6.03955 6.54743 6.29374 6.29325V6.29325C6.54792 6.03906 6.96004 6.03906 7.21422 6.29325L9.97632 9.05535Z" fill="#667085"/>
</svg>
