<svg width="30" height="30" viewBox="0 0 30 30" fill="none" xmlns="http://www.w3.org/2000/svg">
<g clip-path="url(#clip0_1603_14273)">
<path d="M15.0004 12.8578L21.4297 6.42848C22.0214 5.83682 22.9806 5.83682 23.5723 6.42848C24.164 7.02014 24.164 7.97942 23.5723 8.57108L17.143 15.0004L23.5723 21.4297C24.164 22.0214 24.164 22.9807 23.5723 23.5723C22.9806 24.164 22.0214 24.164 21.4297 23.5723L15.0004 17.143L8.57105 23.5723C7.97939 24.164 7.02011 24.164 6.42845 23.5723C5.83679 22.9807 5.83679 22.0214 6.42845 21.4297L12.8578 15.0004L6.42845 8.57108C5.83679 7.97942 5.83679 7.02014 6.42845 6.42848C7.02011 5.83682 7.97939 5.83682 8.57105 6.42848L15.0004 12.8578Z" fill="white"/>
</g>
<defs>
<clipPath id="clip0_1603_14273">
<rect width="30" height="30" fill="white"/>
</clipPath>
</defs>
</svg>
