<svg width="34" height="32" viewBox="0 0 34 32" fill="none" xmlns="http://www.w3.org/2000/svg">
<path d="M0 16C0 7.16344 7.16344 0 16 0H34V32H16C7.16344 32 0 24.8366 0 16Z" fill="white" fill-opacity="0.6"/>
<path d="M11.9144 15.997C11.9144 15.997 11.9144 15.9969 11.9144 15.9969C11.9144 15.7866 12.0025 15.5969 12.1439 15.4627L18.2567 9.67981C18.3883 9.55519 18.5666 9.4786 18.7626 9.47858C19.1695 9.47858 19.4993 9.80837 19.4993 10.2152C19.4993 10.4259 19.4108 10.616 19.2689 10.7503L13.7202 15.9985L19.2686 21.2509C19.4105 21.3856 19.4987 21.5757 19.4987 21.7863C19.4987 21.9823 19.4223 22.1604 19.2977 22.2926C19.0182 22.5868 18.5513 22.6 18.2567 22.3217L12.1442 16.5332C12.0025 16.3987 11.9144 16.209 11.9144 15.9987C11.9144 15.9981 11.9144 15.9975 11.9144 15.997V15.997Z" fill="#595F6D"/>
</svg>
