<svg width="34" height="32" viewBox="0 0 34 32" fill="none" xmlns="http://www.w3.org/2000/svg">
<path d="M0 16C0 7.16344 7.16344 0 16 0H34V32H16C7.16344 32 0 24.8366 0 16Z" fill="white" fill-opacity="0.6"/>
<path d="M20.0856 15.997C20.0856 15.997 20.0856 15.9969 20.0856 15.9969C20.0856 15.7866 19.9975 15.5969 19.8561 15.4627L13.7433 9.67981C13.6117 9.55519 13.4334 9.4786 13.2374 9.47858C12.8305 9.47858 12.5007 9.80837 12.5007 10.2152C12.5007 10.4259 12.5892 10.616 12.7311 10.7503L18.2798 15.9985L12.7314 21.2509C12.5895 21.3856 12.5013 21.5757 12.5013 21.7863C12.5013 21.9823 12.5777 22.1604 12.7023 22.2926C12.9818 22.5868 13.4487 22.6 13.7433 22.3217L19.8558 16.5332C19.9975 16.3987 20.0856 16.209 20.0856 15.9987C20.0856 15.9981 20.0856 15.9975 20.0856 15.997V15.997Z" fill="#595F6D"/>
</svg>
