<svg width="36" height="36" viewBox="0 0 36 36" fill="none" xmlns="http://www.w3.org/2000/svg">
<path fill-rule="evenodd" clip-rule="evenodd" d="M11.947 8.48615L8.44651 19.6738L15.8856 19.6738L14.4145 23.5834C14.0217 24.6275 14.3624 25.8098 15.2472 26.4731L16.3151 27.2737L22.0638 19.6738L23.2769 19.6738L23.2769 8.48615L11.947 8.48615ZM9.75279 7.29926C9.9949 6.52548 10.7016 6 11.5 6L25.7217 6L25.7217 22.16L23.2676 22.16L17.8878 29.2722C17.2793 30.0766 16.1499 30.2384 15.3465 29.6362L13.7966 28.4743C12.0269 27.1477 11.3455 24.783 12.1312 22.6949L12.3325 22.16L8.44651 22.16C6.79189 22.16 5.61515 20.5235 6.11684 18.92L9.75279 7.29926ZM30 6L30 22.16L27.5552 22.16L27.5552 6L30 6Z" fill="#595F6D"/>
</svg>
