<svg xmlns="http://www.w3.org/2000/svg" viewBox="0 0 20 20" fill="none">
  <path fill-rule="evenodd" clip-rule="evenodd" d="M0 5V15C0 16.1046 0.895431 17 2 17H18C19.1046 17 20 16.1046 20 15V5C20 3.89543 19.1046 3 18 3H2C0.895431 3 0 3.89543 0 5ZM19 5.0169V5C19 4.44772 18.5523 4 18 4H2C1.44772 4 1 4.44772 1 5V5.0169L9.22826 9.95386C9.70328 10.2389 10.2967 10.2389 10.7717 9.95386L19 5.0169ZM1 6.1831V15C1 15.5523 1.44772 16 2 16H18C18.5523 16 19 15.5523 19 15V6.1831L11.2862 10.8114C10.4945 11.2864 9.50547 11.2864 8.71376 10.8114L1 6.1831Z" fill="#C7C7C7"/>
</svg>