<svg width="72" height="72" viewBox="0 0 72 72" fill="none" xmlns="http://www.w3.org/2000/svg">
<rect width="72" height="72" rx="36" fill="#FFE0E0"/>
<g clip-path="url(#clip0_1522_5850)">
<path d="M36.0004 33.715L42.8584 26.857C43.4895 26.2259 44.5127 26.2259 45.1438 26.857C45.7749 27.4881 45.7749 28.5114 45.1438 29.1425L38.2859 36.0004L45.1438 42.8584C45.7749 43.4895 45.7749 44.5127 45.1438 45.1438C44.5127 45.7749 43.4895 45.7749 42.8584 45.1438L36.0004 38.2859L29.1425 45.1438C28.5114 45.7749 27.4881 45.7749 26.857 45.1438C26.2259 44.5127 26.2259 43.4895 26.857 42.8584L33.715 36.0004L26.857 29.1425C26.2259 28.5114 26.2259 27.4881 26.857 26.857C27.4881 26.2259 28.5114 26.2259 29.1425 26.857L36.0004 33.715Z" fill="#EB5757"/>
</g>
<defs>
<clipPath id="clip0_1522_5850">
<rect width="32" height="32" fill="white" transform="translate(20 20)"/>
</clipPath>
</defs>
</svg>
