<svg viewBox="0 0 20 20" fill="none" xmlns="http://www.w3.org/2000/svg">
<path d="M4.04413 9.99992C4.04413 7.64524 4.45102 6.217 5.2857 5.35654C6.1204 4.49606 7.50577 4.0767 9.78954 4.0767C10.3124 4.0767 10.7911 4.10037 11.2287 4.14828L11.8901 4.24399C12.1758 4.28533 12.4399 4.08009 12.4799 3.78559C12.52 3.49109 12.321 3.21883 12.0353 3.17749L11.3568 3.07931L11.3483 3.07837C10.8651 3.02506 10.3459 2.99976 9.78954 2.99976C7.43519 2.99976 5.6867 3.42017 4.54707 4.595C3.40743 5.76983 2.99951 7.57244 2.99951 9.99992C2.99951 12.4274 3.40743 14.23 4.54707 15.4048C5.6867 16.5797 7.43519 17.0001 9.78954 17.0001C12.1523 17.0001 13.8981 16.5439 15.0349 15.3534C16.17 14.1647 16.5796 12.3671 16.5796 9.99992V8.76925C16.5796 8.47186 16.3457 8.23078 16.0572 8.23078C15.7688 8.23078 15.5349 8.47186 15.5349 8.76925V9.99992C15.5349 12.2856 15.1297 13.7189 14.2905 14.5978C13.453 15.4749 12.0649 15.9231 9.78954 15.9231C7.50577 15.9231 6.1204 15.5038 5.2857 14.6433C4.45102 13.7828 4.04413 12.3546 4.04413 9.99992Z" fill="#595F6D"/>
<path d="M15.6557 3.23617C15.4517 3.02588 15.121 3.02588 14.917 3.23617C14.7131 3.44645 14.7131 3.7874 14.917 3.99769L15.7966 4.90443L11.1741 9.66998L10.2982 10.0469L10.6639 9.144L14.3304 5.36402C14.5344 5.15373 14.5344 4.81279 14.3304 4.6025C14.1264 4.39222 13.7957 4.39222 13.5917 4.6025L9.90091 8.40754C9.82065 8.49028 9.75686 8.58841 9.71313 8.69639L8.97519 10.5187C8.74743 11.0812 9.29503 11.6457 9.84059 11.4109L11.6082 10.6501C11.713 10.6051 11.8082 10.5393 11.8884 10.4566L16.8061 5.38672C17.0644 5.12036 17.0644 4.6885 16.8061 4.42214L15.6557 3.23617Z" fill="#595F6D"/>
</svg>
