<svg xmlns="http://www.w3.org/2000/svg" viewBox="0 0 21 21" fill="none">
  <path d="M10.2176 7.78953L17.5041 0.502961C18.1747 -0.167591 19.2619 -0.167591 19.9324 0.502961C20.603 1.17351 20.603 2.26069 19.9324 2.93124L12.6459 10.2178L19.9324 17.5044C20.603 18.1749 20.603 19.2621 19.9324 19.9327C19.2619 20.6032 18.1747 20.6032 17.5041 19.9327L10.2176 12.6461L2.931 19.9327C2.26045 20.6032 1.17327 20.6032 0.502717 19.9327C-0.167836 19.2621 -0.167836 18.1749 0.502716 17.5044L7.78929 10.2178L0.502717 2.93125C-0.167836 2.26069 -0.167836 1.17351 0.502717 0.502961C1.17327 -0.167592 2.26045 -0.167592 2.931 0.502961L10.2176 7.78953Z" fill="currentColor"/>
</svg>