<svg width="16" height="16" viewBox="0 0 16 16" fill="none" xmlns="http://www.w3.org/2000/svg">
<path d="M8.00065 14.6666C4.31875 14.6666 1.33398 11.6818 1.33398 7.99992C1.33398 4.31802 4.31875 1.33325 8.00065 1.33325C11.6825 1.33325 14.6673 4.31802 14.6673 7.99992C14.6673 11.6818 11.6825 14.6666 8.00065 14.6666ZM8.00065 13.3333C10.9462 13.3333 13.334 10.9455 13.334 7.99992C13.334 5.0544 10.9462 2.66659 8.00065 2.66659C5.05513 2.66659 2.66732 5.0544 2.66732 7.99992C2.66732 10.9455 5.05513 13.3333 8.00065 13.3333ZM7.33398 4.66659H8.66732V5.99992H7.33398V4.66659ZM7.33398 7.33325H8.66732V11.3333H7.33398V7.33325Z" fill="#595F6D"/>
</svg>
