<svg width="18" height="18" viewBox="0 0 18 18" fill="none" xmlns="http://www.w3.org/2000/svg">
<path style="mix-blend-mode:plus-darker" d="M0.33252 16.7842C0.199707 16.6514 0.111165 16.4937 0.0668945 16.311C0.0226237 16.134 0.0226237 15.9541 0.0668945 15.7715C0.111165 15.5944 0.19694 15.445 0.324219 15.3232L7.08936 8.55811L0.324219 1.79297C0.19694 1.67122 0.111165 1.52181 0.0668945 1.34473C0.0226237 1.16764 0.0226237 0.987793 0.0668945 0.805176C0.111165 0.622559 0.199707 0.464844 0.33252 0.332031C0.465332 0.199219 0.62028 0.110677 0.797363 0.0664062C0.97998 0.0221354 1.15983 0.0221354 1.33691 0.0664062C1.514 0.110677 1.66895 0.196452 1.80176 0.32373L8.55859 7.08887L15.3154 0.332031C15.4482 0.199219 15.6032 0.110677 15.7803 0.0664062C15.9574 0.0221354 16.1344 0.0221354 16.3115 0.0664062C16.4886 0.110677 16.6436 0.199219 16.7764 0.332031C16.9147 0.464844 17.006 0.622559 17.0503 0.805176C17.0946 0.982259 17.0946 1.15934 17.0503 1.33643C17.006 1.51351 16.9175 1.66846 16.7847 1.80127L10.0278 8.55811L16.7847 15.3149C16.9175 15.4478 17.0033 15.5999 17.042 15.7715C17.0863 15.9486 17.0863 16.1257 17.042 16.3027C17.0033 16.4854 16.9147 16.6458 16.7764 16.7842C16.6436 16.917 16.4886 17.0055 16.3115 17.0498C16.1344 17.0941 15.9574 17.0941 15.7803 17.0498C15.6032 17.0055 15.4482 16.917 15.3154 16.7842L8.55859 10.0273L1.80176 16.7925C1.66895 16.9198 1.514 17.0055 1.33691 17.0498C1.15983 17.0941 0.982747 17.0941 0.805664 17.0498C0.628581 17.0055 0.470866 16.917 0.33252 16.7842Z" fill="#999999"/>
</svg>
