<svg viewBox="0 0 30 30" fill="none" xmlns="http://www.w3.org/2000/svg">
<rect width="30" height="30" rx="15" fill="currentColor" fill-opacity="0.3"/>
<path d="M23.3333 14.9993C23.3333 20.916 21.3333 23.3327 15 23.3327C8.66663 23.3327 6.66663 21.2493 6.66663 14.9993C6.66663 8.74935 9.08329 6.66602 15 6.66602C20.9166 6.66602 23.3333 9.08268 23.3333 14.9993ZM22.0833 14.9993C22.0833 12.1707 21.4989 10.4952 20.5015 9.49782C19.5041 8.50045 17.8286 7.91602 15 7.91602C12.1311 7.91602 10.468 8.43353 9.4844 9.38662C8.50958 10.3312 7.91663 11.9839 7.91663 14.9993C7.91663 18.0654 8.42493 19.7012 9.34572 20.6294C10.2641 21.5553 11.8974 22.0827 15 22.0827C18.0623 22.0827 19.7089 21.4876 20.6405 20.5185C21.5827 19.5382 22.0833 17.8785 22.0833 14.9993Z" fill="currentColor"/>
<rect x="9.5838" y="11.667" width="2.01087" height="2.01087" rx="0.335145" fill="currentColor"/>
<rect x="12.5998" y="11.667" width="2.01087" height="2.01087" rx="0.335145" fill="currentColor"/>
<rect x="15.6157" y="11.667" width="2.01087" height="2.01087" rx="0.335145" fill="currentColor"/>
<rect x="18.6333" y="11.667" width="2.01087" height="2.01087" rx="0.335145" fill="currentColor"/>
<rect x="9.58389" y="14.6836" width="2.01087" height="2.01087" rx="0.335145" fill="currentColor"/>
<rect x="12.5998" y="14.6826" width="2.01087" height="2.01087" rx="0.335145" fill="currentColor"/>
<rect x="15.6157" y="14.6826" width="2.01087" height="2.01087" rx="0.335145" fill="currentColor"/>
<rect x="18.6333" y="14.6826" width="2.01087" height="2.01087" rx="0.335145" fill="currentColor"/>
<path d="M11.403 18.5596H18.0696" stroke="currentColor" stroke-width="1.34058"/>
</svg>
