<svg width="36" height="36" viewBox="0 0 36 36" fill="none" xmlns="http://www.w3.org/2000/svg">
<path fill-rule="evenodd" clip-rule="evenodd" d="M24.053 27.5138L27.5535 16.3262L20.1144 16.3262L21.5855 12.4166C21.9783 11.3725 21.6376 10.1902 20.7528 9.52687L19.6849 8.72633L13.9362 16.3262H12.7231L12.7231 27.5138H24.053ZM26.2472 28.7007C26.0051 29.4745 25.2984 30 24.5 30H10.2783L10.2783 13.84H12.7324L18.1122 6.72784C18.7207 5.92339 19.8501 5.7616 20.6535 6.36381L22.2034 7.52567C23.9731 8.85229 24.6545 11.217 23.8688 13.3051L23.6675 13.84L27.5535 13.84C29.2081 13.84 30.3849 15.4765 29.8832 17.08L26.2472 28.7007ZM6 30V13.84H8.44476V30H6Z" fill="#595F6D"/>
</svg>
