<svg xmlns="http://www.w3.org/2000/svg" viewBox="0 0 20 20" fill="none">
  <path d="M9.5 14.5V10.5H10.5V14.5H9.5Z" fill="#C7C7C7"/>
  <path fill-rule="evenodd" clip-rule="evenodd" d="M5.5 6.5V4.66667C5.5 2.10877 7.49568 0 10 0C12.5043 0 14.5 2.10877 14.5 4.66667V6.5H15C16.1046 6.5 17 7.39543 17 8.5V16.5C17 17.6046 16.1046 18.5 15 18.5H5C3.89543 18.5 3 17.6046 3 16.5V8.5C3 7.39543 3.89543 6.5 5 6.5H5.5ZM6.5 4.66667C6.5 2.62219 8.08604 1 10 1C11.914 1 13.5 2.62219 13.5 4.66667V6.5H6.5V4.66667ZM16 16.5V8.5C16 7.94772 15.5523 7.5 15 7.5H5C4.44772 7.5 4 7.94772 4 8.5V16.5C4 17.0523 4.44772 17.5 5 17.5H15C15.5523 17.5 16 17.0523 16 16.5Z" fill="#C7C7C7"/>
</svg>