<svg width="20" height="20" viewBox="0 0 20 20" fill="none" xmlns="http://www.w3.org/2000/svg">
<rect opacity="0.01" x="0.5" y="0.5" width="19" height="19" fill="#D8D8D8" stroke="#979797"/>
<path d="M11.6763 5L7.34294 5C5.96223 5 4.84294 6.11929 4.84294 7.5V13.3333C4.84294 14.714 5.96222 15.8333 7.34294 15.8333H11.6763" stroke="#595F6D" stroke-width="1.25" stroke-linecap="round"/>
<rect x="7.48877" y="10.104" width="6.875" height="0.625" rx="0.3125" stroke="#595F6D" stroke-width="0.625"/>
<path d="M13.2008 8.2158L15.2634 10.2784C15.3445 10.3598 15.3447 10.4913 15.2634 10.5726C15.1821 10.6539 15.0506 10.6537 14.9693 10.5726L12.9066 8.50997C12.8253 8.42861 12.8253 8.29716 12.9066 8.2158C12.988 8.13444 13.1194 8.13444 13.2008 8.2158Z" stroke="#595F6D" stroke-width="0.833333"/>
<path d="M12.9067 12.3407L14.9693 10.2781C15.0507 10.197 15.1822 10.1968 15.2635 10.2781C15.3448 10.3594 15.3446 10.4909 15.2635 10.5723L13.2009 12.6349C13.1195 12.7162 12.9881 12.7162 12.9067 12.6349C12.8254 12.5535 12.8254 12.4221 12.9067 12.3407Z" stroke="#595F6D" stroke-width="0.833333"/>
</svg>
