<svg viewBox="0 0 1857 360" fill="none" xmlns="http://www.w3.org/2000/svg">
<rect width="360" height="360" rx="80" fill="#373ED8"/>
<path fill-rule="evenodd" clip-rule="evenodd" d="M207.387 209.405L287.458 262.749L265.103 274L195.011 217.568L207.387 209.405ZM237.266 150.773V168.731L90.5994 273.712L99.527 166.438L112.232 173.702V233.675L237.266 150.773ZM67 106.291L139.81 160.888L127.413 170.537L87.3712 144.173L80.6752 264.782L69.2319 253.532L67 106.291ZM278.749 95.206L290.192 106.462L292.424 252.504L220.54 198.498L232.012 189.458L272.054 215.823L278.749 95.206ZM268.824 86.282L259.896 193.558L247.192 185.179V126.327L122.158 209.228L122.158 191.266L268.824 86.282ZM94.33 86L164.414 142.427L152.96 149.982L72.8922 96.6395L94.33 86Z" fill="white"/>
<path d="M1777.47 314.188C1770.02 305.422 1766.51 292.492 1766.51 274.96V221.487C1766.51 205.051 1770.24 192.56 1777.91 184.013C1785.58 175.466 1796.75 171.083 1811.66 171.083C1827 171.083 1838.17 175.466 1845.62 183.794C1853.08 192.34 1856.8 204.832 1856.8 221.487V274.96C1856.8 292.273 1853.08 305.203 1845.62 313.969C1838.17 322.735 1827 327.118 1811.66 327.118C1796.32 327.118 1784.92 322.954 1777.47 314.188ZM1824.59 295.56C1826.78 291.177 1828.09 283.507 1828.09 272.549V225.651C1828.09 214.913 1826.78 207.243 1824.59 202.86C1822.39 198.477 1818.01 196.285 1811.66 196.285C1805.08 196.285 1800.92 198.477 1798.73 202.86C1796.53 207.243 1795.44 214.913 1795.44 225.651V272.549C1795.44 283.507 1796.53 291.177 1798.73 295.56C1800.92 299.943 1805.3 302.135 1811.66 302.135C1818.01 302.135 1822.39 299.943 1824.59 295.56Z" fill="#F55628"/>
<path d="M1716.8 293.585H1747.26V324.705H1716.8V293.585Z" fill="#F55628"/>
<path d="M1700.69 300.601H1688.42V324.707H1659.71V300.601H1601.86V275.399L1645.03 173.494H1673.74L1630.57 275.399H1659.71V239.896H1688.42V275.399H1700.69V300.601Z" fill="#F55628"/>
<path d="M547.169 46.1464H505.015L502.523 53.0818L501.331 56.2243H542.51V131.105H531.24V124.494H469.038V131.105H457.985V56.2243H488.544C490.35 51.5285 491.578 48.1692 492.228 46.1464H453V35.5266H547.169V46.1464ZM480.2 66.7357H469.038V114.416H480.2V66.7357ZM490.928 76.3802H509.133V66.7357H490.928V76.3802ZM520.078 114.416H531.24V66.7357H520.078V114.416ZM490.928 95.019H509.133V85.4829H490.928V95.019ZM509.133 104.122H490.928V114.416H509.133V104.122Z" fill="black"/>
<path d="M656.726 60.1255V69.5532H637.329V76.9221H654.776V86.1331H637.329V95.5608H626.493V86.1331H610.021V76.9221H626.493V69.5532H607.962V60.1255H618.04C617.751 57.597 617.101 53.9487 616.089 49.1806H609.479V39.7529H626.926C626.493 38.3802 625.553 35.635 624.109 31.5171L634.945 30C636.029 33.1065 637.076 36.3574 638.088 39.7529H654.993V49.1806H647.84C647.479 51.4202 646.757 55.0684 645.673 60.1255H656.726ZM572.31 80.3897C570.865 84.0741 568.77 87.903 566.025 91.8764L559.848 81.6901C562.521 77.1388 564.435 72.8042 565.591 68.6863C566.747 64.5684 567.325 59.1863 567.325 52.5399V35.3099H605.036V60.7757H576.97C576.753 63.2319 576.428 65.616 575.994 67.9278H605.253V92.2015H572.31V80.3897ZM595.175 52.1065V43.8707H577.295V52.1065H595.175ZM625.734 49.1806C626.167 51.2757 626.818 54.924 627.685 60.1255H636.354C637.148 56.2966 637.835 52.6483 638.413 49.1806H625.734ZM595.934 75.9468H581.629V84.0742H595.934V75.9468ZM648.491 109.648H614.681V118.534H656.401V128.287H562.015V118.534H603.519V109.648H569.709V100.221H603.519V94.0437H614.681V100.221H648.491V109.648Z" fill="black"/>
<path d="M727.489 32.2757H754.905V44.6293H740.709V89.0589H727.489V32.2757Z" fill="black"/>
<path d="M812.664 116.909C814.903 116.909 816.529 116.728 817.54 116.367C818.552 115.933 819.202 115.211 819.491 114.2C819.852 113.188 820.033 111.563 820.033 109.323V32.8175H833.036V113.116C833.036 117.378 832.458 120.665 831.303 122.977C830.219 125.289 828.413 126.914 825.884 127.854C823.356 128.865 819.888 129.371 815.481 129.371H801.936L799.335 116.909H812.664ZM853.192 51.2395C855.938 57.3802 859.622 66.4106 864.246 78.3308C868.869 90.1787 872.554 99.9677 875.299 107.698L862.512 112.466C860.055 104.591 856.732 94.9829 852.542 83.6407C848.352 72.2262 844.668 62.7985 841.489 55.3574L853.192 51.2395ZM775.711 107.156C779.612 99.7148 783.225 90.9373 786.548 80.8232C789.871 70.6369 792.4 61.2091 794.133 52.5399L806.704 54.924C804.464 64.8213 801.611 74.9354 798.143 85.2662C794.747 95.5247 791.063 104.591 787.09 112.466L775.711 107.156Z" fill="black"/>
<path d="M907.917 33.4677C906.472 37.73 905.244 41.1977 904.232 43.8707H918.97V54.4905H899.789C898.128 58.1027 896.647 61.0646 895.346 63.3764H917.236V73.9962H906.941V84.7243H918.428V95.2357H906.941V112.791L915.827 105.639L918.97 116.475L899.464 130.454L893.504 121.027C894.732 120.16 895.563 119.257 895.996 118.317C896.502 117.306 896.755 116.114 896.755 114.741V95.2357H886.135V84.7243H896.755V73.9962H889.278V66.3023L884.401 60.6673C889.314 52.0703 893.721 41.9202 897.622 30.2167L907.917 33.4677ZM921.462 36.0684H978.354V116.909C978.354 120.16 977.921 122.688 977.054 124.494C976.259 126.3 974.85 127.601 972.827 128.395C970.877 129.19 968.132 129.587 964.592 129.587H952.672L950.829 118.968H960.474C962.424 118.968 963.869 118.823 964.808 118.534C965.82 118.173 966.47 117.595 966.759 116.8C967.12 116.006 967.301 114.814 967.301 113.224V107.914L960.04 113.008L950.179 93.2852C946.422 100.365 942.413 107.192 938.151 113.766L932.407 108.89V130.021H921.462V36.0684ZM955.381 83.0989C956.97 86.1331 958.126 88.4088 958.848 89.9259C963.544 98.884 966.362 104.375 967.301 106.397V46.7966H932.407V57.5247L939.234 52.9734L949.962 72.8042C953.647 64.7852 956.5 58.0304 958.523 52.5399L966.867 56.2243C963.905 64.3878 960.076 73.346 955.381 83.0989ZM932.407 104.447C936.814 97.6559 940.968 90.5038 944.869 82.9905C939.306 72.2985 935.152 64.4601 932.407 59.4753V104.447Z" fill="black"/>
<path d="M1091.49 103.58C1091.27 109.432 1090.91 113.911 1090.4 117.017C1090.04 120.051 1089.32 122.399 1088.24 124.061C1087.15 125.722 1085.53 126.914 1083.36 127.637C1081.19 128.359 1078.23 128.721 1074.47 128.721H1046.52C1041.24 128.721 1037.45 127.601 1035.14 125.361C1032.9 123.194 1031.78 119.473 1031.78 114.2V106.831L1023.98 114.2L1020.18 109.106L1015.2 102.496C1014.04 107.409 1012.42 112.105 1010.32 116.584C1008.23 120.991 1005.59 125.542 1002.41 130.238L993.2 122.652C996.884 117.74 999.738 113.044 1001.76 108.565C1003.78 104.086 1005.23 99.1369 1006.1 93.7186C1007.03 88.2281 1007.5 81.5095 1007.5 73.5627V33.4677H1018.67V55.2491L1020.72 52.5399C1023.61 48.8555 1025.24 46.6882 1025.6 46.038L1032.21 52.6483C1036.11 45.7852 1039.22 38.7414 1041.53 31.5171L1052.58 33.6844C1051.93 35.5627 1050.89 38.308 1049.44 41.9202H1084.99L1084.66 70.8536C1084.44 80.8954 1084.34 87.8669 1084.34 91.7681C1084.19 95.8137 1083.43 98.9563 1082.06 101.196L1091.49 103.58ZM998.943 82.8821C998.727 80.9316 997.896 76.2719 996.451 68.903C995.006 61.462 993.886 55.8631 993.092 52.1065L1001 49.8308C1001.51 51.6369 1002.59 56.6939 1004.25 65.0019C1005.91 73.3099 1006.89 78.4753 1007.18 80.4981L998.943 82.8821ZM1044.46 52.7567C1042.58 56.5856 1040.66 59.981 1038.71 62.943H1066.35V95.9943C1068.44 95.9221 1069.99 95.597 1071.01 95.019C1072.02 94.3688 1072.67 93.5019 1072.96 92.4183C1073.32 91.3346 1073.53 89.8536 1073.61 87.9753L1074.26 52.7567H1044.46ZM1017.69 88.4088C1025.85 99.1008 1030.55 105.169 1031.78 106.614V73.0209L1031.45 73.4544L1023.98 64.8935C1026.14 62.2205 1028.2 59.2947 1030.15 56.116L1028.42 58.1749L1018.67 70.4202C1018.59 76.9943 1018.27 82.9905 1017.69 88.4088ZM1056.27 86.6749V73.7795H1042.07V86.6749H1056.27ZM1073.07 118.101C1075.95 118.101 1077.87 117.703 1078.81 116.909C1079.82 116.042 1080.36 114.2 1080.43 111.382L1080.87 102.821C1078.27 105.494 1073.97 106.831 1067.97 106.831H1058.87L1057.03 97.5114H1042.07V110.84C1042.07 112.935 1042.29 114.489 1042.72 115.5C1043.23 116.511 1043.99 117.198 1045 117.559C1046.08 117.92 1047.67 118.101 1049.77 118.101H1073.07Z" fill="black"/>
<path d="M1140.36 129.804H1112.94V117.451H1127.14V73.0209H1140.36V129.804Z" fill="black"/>
<path d="M959.288 165.13C972.943 165.13 984.559 168.491 994.198 175.2L995.194 175.907C1003.76 182.12 1010.71 190.424 1016.04 200.847L1016.24 201.244L988.846 213.438L988.541 212.821C985.616 207.083 981.683 202.614 976.749 199.451C971.096 195.827 964.581 194.018 957.255 194.018C949.207 194.018 941.978 196.295 935.635 200.836C929.33 205.35 924.437 211.671 920.962 219.755C917.518 227.767 915.802 236.806 915.802 246.854C915.802 257.166 917.516 266.434 920.954 274.645C924.424 282.929 929.309 289.419 935.608 294.072C941.955 298.76 949.194 301.113 957.255 301.113C964.192 301.113 970.48 299.259 976.065 295.56L976.931 294.969C981.508 291.746 985.482 287.401 988.854 281.952L989.062 281.605L1016.64 293.883L1016.46 294.248C1010.77 305.312 1003.08 313.91 993.361 320.082C982.954 326.693 971.003 330 957.458 330C943.099 330 930.366 326.489 919.21 319.467C908.043 312.439 899.342 302.654 893.085 290.073C886.807 277.451 883.662 263.053 883.662 246.854C883.662 230.933 886.837 216.781 893.176 204.367C899.493 191.995 908.354 182.38 919.784 175.482C931.217 168.583 944.37 165.13 959.288 165.13ZM770.474 207.409C781.914 207.409 790.676 211.047 796.941 218.323L797.491 218.98C803.45 226.294 806.464 236.644 806.464 250.106V327.152H776.559L776.56 258.033C776.56 251.298 774.838 245.868 771.341 241.839C767.785 237.742 762.898 235.686 756.856 235.686C749.905 235.686 744.208 237.912 739.91 242.361L739.406 242.902C735.454 247.284 733.493 253.111 733.493 260.269L733.492 327.152H703.588V210.253H733.492L733.493 226.109H737.987L738.636 225.036C741.966 219.528 746.335 215.223 751.767 212.092C757.178 208.972 763.4 207.409 770.474 207.409ZM857.648 210.253V327.152H827.746V210.253H857.648ZM680.449 210.253V327.152H650.545V210.253H680.449ZM459.827 167.976H488.114L540.149 247.045H543.766L595.798 167.976H624.085V327.152H593.979L593.98 229.792H589.354L553.985 282.233H529.912L494.342 230.605H489.731L489.729 327.152H459.827V167.976ZM1091.81 167.976C1104.5 167.976 1115.49 170.181 1124.8 174.573C1134.04 178.93 1141.09 185.14 1146.01 193.23C1150.94 201.337 1153.41 210.864 1153.41 221.852C1153.41 232.849 1151 242.347 1146.2 250.389C1141.41 258.415 1134.59 264.59 1125.69 268.943C1116.73 273.325 1106.12 275.526 1093.84 275.526H1066L1066 327.152H1034.88V167.976H1091.81ZM1086.52 195.847H1066V247.655H1086.52C1097.12 247.655 1105.56 245.436 1111.81 240.934C1118.22 236.313 1121.47 229.881 1121.47 221.852C1121.47 213.829 1118.22 207.369 1111.82 202.68C1105.57 198.103 1097.12 195.847 1086.52 195.847ZM680.449 161.133V191.035H650.545V161.133H680.449ZM857.41 161.133V191.035H827.506V161.133H857.41Z" fill="black"/>
<path d="M1201.84 326.009H1172.67V168.858H1200.05L1251.44 249.815H1252.63L1304.22 168.858H1331.61V326.009H1302.44V225.012H1301.25L1262.95 284.737H1241.32L1203.03 225.607H1201.84V326.009Z" fill="black"/>
<path d="M1491.24 329.4C1480.04 329.4 1470.24 326.933 1461.84 322C1453.57 317.067 1447.17 310.067 1442.64 301C1438.24 291.8 1436.04 281 1436.04 268.6C1436.04 256.333 1438.24 245.667 1442.64 236.6C1447.17 227.4 1453.57 220.333 1461.84 215.4C1470.24 210.467 1480.04 208 1491.24 208C1502.44 208 1512.17 210.467 1520.44 215.4C1528.71 220.333 1535.04 227.4 1539.44 236.6C1543.97 245.667 1546.24 256.333 1546.24 268.6C1546.24 281 1543.97 291.8 1539.44 301C1535.04 310.067 1528.71 317.067 1520.44 322C1512.17 326.933 1502.44 329.4 1491.24 329.4ZM1491.24 301.8C1498.97 301.8 1505.11 298.8 1509.64 292.8C1514.17 286.8 1516.44 278.733 1516.44 268.6C1516.44 258.467 1514.17 250.467 1509.64 244.6C1505.11 238.6 1498.97 235.6 1491.24 235.6C1483.37 235.6 1477.17 238.6 1472.64 244.6C1468.11 250.467 1465.84 258.467 1465.84 268.6C1465.84 278.733 1468.11 286.8 1472.64 292.8C1477.17 298.8 1483.37 301.8 1491.24 301.8Z" fill="black"/>
<path d="M1354.6 232.4H1421V259.6H1354.6V232.4Z" fill="black"/>
</svg>
