<svg viewBox="0 0 34 34" fill="none" xmlns="http://www.w3.org/2000/svg">
<path d="M27.6001 3.3999C29.2569 3.39996 30.6 4.74312 30.6001 6.3999V27.6001C30.6 29.2569 29.2569 30.6 27.6001 30.6001H6.3999C4.74312 30.6 3.39995 29.2569 3.3999 27.6001V6.3999C3.39996 4.74313 4.74312 3.39995 6.3999 3.3999H27.6001ZM6.6665 5.6665C6.11435 5.66659 5.66659 6.11435 5.6665 6.6665V27.3335C5.66659 27.8857 6.11435 28.3334 6.6665 28.3335H27.3335C27.8857 28.3334 28.3334 27.8857 28.3335 27.3335V6.6665C28.3334 6.11435 27.8857 5.66659 27.3335 5.6665H6.6665Z" fill="currentColor"/>
<rect x="13.6001" y="13.6001" width="6.8" height="6.8" rx="1" fill="currentColor"/>
</svg>
