<svg viewBox="0 0 30 30" fill="none" xmlns="http://www.w3.org/2000/svg">
<path d="M20 7.875V7.5C20 4.7375 17.7625 2.5 15 2.5C12.2375 2.5 10 4.7375 10 7.5V13.75" stroke="currentColor" stroke-width="2" stroke-linecap="round" stroke-linejoin="round"/>
<path d="M11.3 17.7375C12.2125 18.75 13.5375 19.375 15 19.375C17.7625 19.375 20 17.1375 20 14.375V13.75" stroke="currentColor" stroke-width="2" stroke-linecap="round" stroke-linejoin="round"/>
<path d="M8.47498 21.1875C10.1875 22.775 12.475 23.75 15 23.75C20.275 23.75 24.5625 19.4625 24.5625 14.1875V12.0625" stroke="currentColor" stroke-width="2" stroke-linecap="round" stroke-linejoin="round"/>
<path d="M5.4375 12.0625V14.1875C5.4375 15.5125 5.7 16.7625 6.1875 17.9125" stroke="currentColor" stroke-width="2" stroke-linecap="round" stroke-linejoin="round"/>
<path d="M25.0875 3.55005L4.91248 23.7375" stroke="currentColor" stroke-width="2" stroke-linecap="round" stroke-linejoin="round"/>
<path d="M13.75 3.75V7.5" stroke="currentColor" stroke-width="2" stroke-linecap="round" stroke-linejoin="round"/>
<path d="M15 23.75V27.5" stroke="currentColor" stroke-width="2" stroke-linecap="round" stroke-linejoin="round"/>
</svg>
