<svg width="28" height="28" viewBox="0 0 28 28" fill="none" xmlns="http://www.w3.org/2000/svg">
<path d="M19.8334 10.7332L25.9155 6.47567C26.1794 6.29091 26.5432 6.3551 26.7279 6.61904C26.7965 6.71708 26.8334 6.83387 26.8334 6.95356V21.0462C26.8334 21.3683 26.5721 21.6295 26.25 21.6295C26.1303 21.6295 26.0135 21.5926 25.9155 21.524L19.8334 17.2665V22.1665C19.8334 22.8109 19.311 23.3332 18.6667 23.3332H2.33335C1.68903 23.3332 1.16669 22.8109 1.16669 22.1665V5.83317C1.16669 5.18884 1.68903 4.6665 2.33335 4.6665H18.6667C19.311 4.6665 19.8334 5.18884 19.8334 5.83317V10.7332ZM5.83335 9.33317V11.6665H8.16669V9.33317H5.83335Z" fill="currentColor"/>
</svg>
