<svg width="28" height="28" viewBox="0 0 28 28" fill="none" xmlns="http://www.w3.org/2000/svg">
<path d="M13.9998 1.1665C17.2214 1.1665 19.8331 3.77818 19.8331 6.99984V11.6665C19.8331 14.8881 17.2214 17.4998 13.9998 17.4998C10.7781 17.4998 8.16639 14.8881 8.16639 11.6665V6.99984C8.16639 3.77818 10.7781 1.1665 13.9998 1.1665ZM3.56381 12.8332H5.91577C6.48187 16.7909 9.88551 19.8332 13.9998 19.8332C18.1139 19.8332 21.5175 16.7909 22.0837 12.8332H24.4356C23.8977 17.7 20.0333 21.5644 15.1664 22.1025V26.8332H12.8331V22.1025C7.96617 21.5644 4.10182 17.7 3.56381 12.8332Z" fill="currentColor"/>
</svg>
