<svg width="20" height="20" viewBox="0 0 20 20" fill="none" xmlns="http://www.w3.org/2000/svg">
<path d="M11.5003 2.5L11.7346 4.125L11.8284 4.79688L12.4378 5.07812C12.6878 5.20312 12.9534 5.34375 13.1878 5.5L13.7346 5.85938L14.344 5.625L15.9378 5L17.4221 7.48438L16.1096 8.48438L15.5628 8.90625L15.6253 9.59375C15.6409 9.73438 15.6409 9.875 15.6409 10C15.6409 10.125 15.6409 10.2656 15.6253 10.4062L15.5628 11.0938L16.1096 11.5156L17.4221 12.5156L15.9534 15L14.344 14.375L13.7346 14.1406L13.1878 14.5C12.9378 14.6719 12.6878 14.8125 12.4378 14.9219L11.8284 15.2031L11.7346 15.8594L11.5003 17.5H8.50026L8.26589 15.875L8.17213 15.2031L7.56276 14.9219C7.31276 14.7969 7.04713 14.6562 6.81276 14.5L6.26588 14.1406L5.65651 14.375L4.06276 15L2.57839 12.5156L3.89089 11.5156L4.43776 11.0938L4.37526 10.4062C4.35964 10.2656 4.35964 10.125 4.35964 10C4.35964 9.875 4.35964 9.73438 4.37526 9.59375L4.43776 8.90625L3.89089 8.48438L2.57839 7.48438L4.04714 5L5.65651 5.625L6.26588 5.85938L6.81276 5.5C7.06276 5.32812 7.31276 5.1875 7.56276 5.07812L8.17213 4.79688L8.26589 4.14062L8.50026 2.5H11.5003ZM11.6721 1.25H8.32838C7.79713 1.25 7.35963 1.625 7.28151 2.125L7.03151 3.9375C6.71901 4.07812 6.42214 4.25 6.10964 4.45312L4.34401 3.76562C4.21901 3.71875 4.09401 3.70312 3.96901 3.70312C3.59401 3.70312 3.23464 3.89062 3.06276 4.21875L1.39089 7.03125C1.12526 7.46875 1.23464 8.04688 1.64089 8.35938L3.12526 9.48438C3.10964 9.67188 3.09401 9.84375 3.09401 10C3.09401 10.1562 3.09401 10.3281 3.12526 10.5156L1.64089 11.6406C1.23464 11.9531 1.12526 12.5 1.39089 12.9688L3.04714 15.7656C3.23464 16.0938 3.59401 16.2969 3.96901 16.2969C4.09401 16.2969 4.20339 16.2812 4.32839 16.2344L6.09401 15.5469C6.39089 15.75 6.70339 15.9219 7.01589 16.0625L7.28151 17.8594C7.34401 18.3594 7.79713 18.75 8.32838 18.75H11.6721C12.2034 18.75 12.6409 18.375 12.719 17.875L12.9846 16.0625C13.2971 15.9219 13.594 15.75 13.9065 15.5469L15.6721 16.2344C15.7971 16.2812 15.9221 16.2969 16.0471 16.2969C16.4221 16.2969 16.7815 16.1094 16.9534 15.7812L18.6253 12.9531C18.8753 12.5 18.7659 11.9531 18.3596 11.6406L16.8753 10.5156C16.8909 10.3594 16.9065 10.1875 16.9065 10C16.9065 9.8125 16.8909 9.64062 16.8753 9.48438L18.3596 8.35938C18.7659 8.04688 18.8753 7.5 18.6096 7.03125L16.9534 4.23438C16.7659 3.90625 16.4065 3.70312 16.0315 3.70312C15.9065 3.70312 15.7971 3.71875 15.6721 3.76562L13.9065 4.45312C13.6096 4.25 13.2971 4.07812 12.9846 3.9375L12.719 2.14062C12.6409 1.625 12.2034 1.25 11.6721 1.25ZM10.0003 7.5C11.3753 7.5 12.5003 8.625 12.5003 10C12.5003 11.375 11.3753 12.5 10.0003 12.5C8.62526 12.5 7.50026 11.375 7.50026 10C7.50026 8.625 8.62526 7.5 10.0003 7.5ZM10.0003 6.25C7.93776 6.25 6.25026 7.9375 6.25026 10C6.25026 12.0625 7.93776 13.75 10.0003 13.75C12.0628 13.75 13.7503 12.0625 13.7503 10C13.7503 7.9375 12.0628 6.25 10.0003 6.25Z" fill="#595F6D"/>
</svg>
