<svg xmlns="http://www.w3.org/2000/svg" viewBox="0 0 20 20" fill="none">
  <path d="M13.0951 10.9752C13.4973 10.5345 13.801 9.98891 14.0131 9.33615H14.6722V8.8804H13.0266C12.8983 8.59844 12.753 8.3564 12.5943 8.15104L12.1388 8.3179C12.2973 8.49983 12.4342 8.69012 12.5409 8.88692H10.8202V9.34267H11.4795C11.6631 9.9718 11.9903 10.5243 12.4593 11.0033C12.0053 11.3906 11.4296 11.6642 10.7385 11.8461L10.9822 12.2483C11.6865 12.0513 12.294 11.7327 12.7797 11.3003C13.2436 11.6793 13.8196 12.0063 14.5172 12.2634C14.5172 12.2634 14.7659 11.8728 14.7641 11.8694C14.1032 11.6273 13.5423 11.3321 13.0951 10.9748V10.9752ZM12.7797 10.6932C12.3774 10.2992 12.0887 9.852 11.9151 9.33636H13.5458C13.3787 9.86545 13.1218 10.3226 12.7797 10.6932Z" fill="currentColor"/>
  <path d="M15.7109 4.44931H9.33874L8.97488 2.5H3.05828C2.40572 2.5 1.875 3.03072 1.875 3.68328V13.7422C1.875 14.3947 2.40572 14.9254 3.05828 14.9254H8.45251L8.02019 16.8748H15.7125C16.3651 16.8748 16.8958 16.344 16.8958 15.6915V5.63443C16.8942 4.98024 16.3616 4.44952 15.7109 4.44952V4.44931ZM6.96363 10.2516H4.65045V7.14225H6.89681V7.57457H5.15937V8.43921H6.79168V8.87153H5.15937V9.8195H6.96343V10.2518L6.96363 10.2516ZM16.3099 15.6833H16.3015C16.3015 16.0105 16.0363 16.2758 15.7091 16.2758H8.76279L9.0582 14.9189H11.2797L10.0129 7.85756L10.0062 7.89586L9.95279 7.61389L9.96787 7.62062L9.5056 5.04034H15.7176C16.0448 5.04034 16.3101 5.3056 16.3101 5.6328V15.6833H16.3099Z" fill="currentColor"/>
</svg>