<svg viewBox="0 0 20 20" fill="none" xmlns="http://www.w3.org/2000/svg">
<path d="M3.73364 3.55957C3.73142 3.49426 3.75573 3.42981 3.802 3.38086C3.84833 3.33199 3.91313 3.30234 3.98267 3.2998H9.31372L9.36646 3.30664C9.3836 3.31067 9.40024 3.31694 9.41626 3.32422C9.44814 3.33872 9.47681 3.35875 9.50024 3.38379L9.50513 3.38867C9.551 3.44018 9.57554 3.50598 9.57349 3.57324V8.62695H9.57251L9.57349 8.63965C9.57493 8.67297 9.5696 8.7068 9.55786 8.73828C9.54608 8.76981 9.52772 8.7992 9.50415 8.82422C9.48063 8.84916 9.45212 8.86946 9.42017 8.88379C9.3881 8.89815 9.35309 8.90617 9.31763 8.90723H3.97778C3.94324 8.90537 3.9091 8.89747 3.87817 8.88281C3.84725 8.86815 3.8196 8.84708 3.79712 8.82227C3.77486 8.7976 3.75821 8.76896 3.74731 8.73828C3.73643 8.70752 3.73181 8.67494 3.73364 8.64258V3.55957Z" stroke="#595F6D" stroke-width="0.6"/>
<path d="M16.051 10.7721L10.6946 10.7709C10.62 10.7731 10.5465 10.7899 10.4786 10.8203C10.4106 10.8508 10.3494 10.8942 10.2986 10.9482C10.2478 11.0021 10.2083 11.0655 10.1825 11.1346C10.1566 11.2037 10.145 11.2772 10.1482 11.3508V16.4165C10.1344 16.725 10.3782 16.9854 10.6908 17.0002H16.0485C16.1966 16.9951 16.3367 16.9322 16.4379 16.8253C16.5392 16.7184 16.5934 16.5763 16.5886 16.4301V11.3545C16.5928 11.2075 16.539 11.0645 16.4384 10.9559C16.3379 10.8472 16.1985 10.7813 16.0497 10.7721H16.051ZM14.1017 7.01448H14.9607C14.9678 7.01441 14.9749 7.01284 14.9814 7.00986C14.9878 7.00688 14.9936 7.00256 14.9982 6.99721C15.007 6.98639 15.0114 6.97278 15.0107 6.95895C14.8776 6.18074 14.4772 5.47142 13.8768 4.9501C13.2765 4.42879 12.5126 4.12721 11.7136 4.09602C11.5943 4.07027 11.4872 4.00563 11.4096 3.9125C11.332 3.81938 11.2885 3.70319 11.286 3.58266C11.2856 3.5159 11.2986 3.44972 11.3242 3.38791C11.3498 3.3261 11.3875 3.26987 11.4351 3.22243C11.4827 3.17499 11.5393 3.13727 11.6017 3.11142C11.664 3.08557 11.731 3.0721 11.7986 3.07178C12.8496 3.12953 13.8459 3.55291 14.6106 4.26678C15.3753 4.98065 15.8591 5.93884 15.976 6.97129C15.9775 6.98308 15.9832 6.99393 15.9922 7.00187C16.0012 7.0098 16.0127 7.01428 16.0247 7.01448H17L15.5496 9.14441L14.103 7.01448H14.1017ZM8.23265 16.9077C7.07711 16.8525 5.98828 16.3571 5.1952 15.5258C4.40213 14.6945 3.96661 13.5921 3.98026 12.4504C3.98047 12.4439 3.97924 12.4374 3.97665 12.4314C3.97405 12.4255 3.97017 12.4201 3.96526 12.4158C3.95602 12.4065 3.94344 12.4012 3.93025 12.401H3L4.44914 10.2723L5.89828 12.4022H4.97303C4.96646 12.4022 4.95996 12.4035 4.95389 12.406C4.94782 12.4085 4.94231 12.4121 4.93766 12.4167C4.93302 12.4213 4.92934 12.4267 4.92682 12.4327C4.92431 12.4387 4.92302 12.4451 4.92302 12.4516C4.91681 13.3445 5.26579 14.2042 5.89494 14.8459C6.5241 15.4877 7.38321 15.8602 8.28767 15.8834C8.41894 15.8989 8.53935 15.963 8.62453 16.0628C8.70971 16.1626 8.75329 16.2906 8.74646 16.421C8.73963 16.5513 8.68289 16.6741 8.58773 16.7647C8.49257 16.8553 8.3661 16.9069 8.2339 16.9089L8.23265 16.9077Z" fill="#595F6D"/>
</svg>
