<svg xmlns="http://www.w3.org/2000/svg" width="14" height="14" viewBox="0 0 14 14" fill="none">
  <path fill-rule="evenodd" clip-rule="evenodd" d="M3.79171 1.75195H5.54171C5.86254 1.75195 6.12504 2.01445 6.12504 2.33529V11.6687C6.12504 11.9895 5.86254 12.252 5.54171 12.252H3.79171C3.47087 12.252 3.20837 11.9895 3.20837 11.6687V2.33529C3.20837 2.01445 3.47087 1.75195 3.79171 1.75195ZM8.45837 1.75195H10.2084C10.5292 1.75195 10.7917 2.01445 10.7917 2.33529V11.6687C10.7917 11.9895 10.5292 12.252 10.2084 12.252H8.45837C8.13754 12.252 7.87504 11.9895 7.87504 11.6687V2.33529C7.87504 2.01445 8.13754 1.75195 8.45837 1.75195Z" fill="currentColor"/>
</svg>