<svg xmlns="http://www.w3.org/2000/svg" width="14" height="15" viewBox="0 0 14 15" fill="none">
  <path fill-rule="evenodd" clip-rule="evenodd" d="M3.79165 2.50171H5.54165C5.86248 2.50171 6.12498 2.76421 6.12498 3.08504V12.4184C6.12498 12.7392 5.86248 13.0017 5.54165 13.0017H3.79165C3.47081 13.0017 3.20831 12.7392 3.20831 12.4184V3.08504C3.20831 2.76421 3.47081 2.50171 3.79165 2.50171ZM8.45831 2.50171H10.2083C10.5291 2.50171 10.7916 2.76421 10.7916 3.08504V12.4184C10.7916 12.7392 10.5291 13.0017 10.2083 13.0017H8.45831C8.13748 13.0017 7.87498 12.7392 7.87498 12.4184V3.08504C7.87498 2.76421 8.13748 2.50171 8.45831 2.50171Z" fill="currentColor"/>
</svg>