<svg width="16" height="16" viewBox="0 0 16 16" fill="none" xmlns="http://www.w3.org/2000/svg">
<g clip-path="url(#clip0_200_10834)">
<path d="M2.57885 13.4212C1.14107 11.9834 0.333333 10.0333 0.333333 8C0.333333 5.96667 1.14107 4.01663 2.57885 2.57885C4.01663 1.14107 5.96667 0.333333 8 0.333333C10.0333 0.333333 11.9834 1.14107 13.4212 2.57885C14.8589 4.01663 15.6667 5.96667 15.6667 8C15.6667 10.0333 14.8589 11.9834 13.4212 13.4212C11.9834 14.8589 10.0333 15.6667 8 15.6667C5.96667 15.6667 4.01663 14.8589 2.57885 13.4212Z" stroke="#595F6D" stroke-width="0.666667"/>
<path d="M6.04004 4.83746C6.1764 4.71746 6.32513 4.60327 6.48731 4.49527C6.83241 4.2664 7.21854 4.10649 7.6244 4.02436C7.85934 3.97687 8.09854 3.95372 8.33822 3.95527C8.68622 3.95527 9.00331 4.00327 9.28913 4.09927C9.57531 4.19527 9.82004 4.332 10.024 4.51018C10.2277 4.68764 10.3896 4.90793 10.4982 5.15527C10.6102 5.40727 10.6662 5.68909 10.6662 6.00109C10.6662 6.30546 10.6222 6.56836 10.5342 6.79018C10.4537 6.99929 10.3414 7.1947 10.2011 7.36946C10.073 7.52765 9.92709 7.67053 9.76622 7.79527C9.61022 7.91527 9.46222 8.028 9.32222 8.13418C9.19429 8.2298 9.07304 8.33405 8.95931 8.44618C8.85749 8.548 8.7964 8.66327 8.77604 8.79127L8.63822 9.66727H7.6244L7.52222 8.68909C7.51853 8.67236 7.51646 8.65531 7.51604 8.63818V8.58727C7.51604 8.41127 7.56004 8.25818 7.64804 8.12836C7.7364 7.99818 7.84622 7.87636 7.97822 7.76218C8.11022 7.64836 8.25204 7.53746 8.40404 7.42909C8.5564 7.32109 8.69822 7.20436 8.83022 7.07818C8.96222 6.95236 9.07204 6.80909 9.16004 6.64909C9.2484 6.48909 9.29204 6.30146 9.29204 6.08546C9.29204 5.94109 9.26513 5.81236 9.21131 5.69818C9.15809 5.58532 9.08134 5.48514 8.98622 5.40436C8.88472 5.31929 8.76746 5.25504 8.64113 5.21527C8.50059 5.17033 8.35377 5.14811 8.20622 5.14946C7.97822 5.14946 7.78513 5.17418 7.62731 5.22436C7.48787 5.2665 7.35311 5.32279 7.22513 5.39236C7.11531 5.45418 7.02222 5.51018 6.94622 5.56036C6.87022 5.61018 6.80222 5.63527 6.74222 5.63527C6.59822 5.63527 6.49422 5.57527 6.43022 5.45527L6.04004 4.83709V4.83746ZM7.17422 11.9113C7.17422 11.7873 7.19713 11.6695 7.24331 11.5571C7.28913 11.4451 7.35313 11.3495 7.43531 11.2695C7.51713 11.1895 7.61422 11.1255 7.72622 11.0771C7.83822 11.0291 7.95822 11.0055 8.08622 11.0055C8.21022 11.0055 8.32804 11.0291 8.4404 11.0771C8.5524 11.1255 8.64804 11.1891 8.7284 11.2695C8.8084 11.3495 8.87204 11.4451 8.92004 11.5571C8.9684 11.6695 8.99204 11.7873 8.99204 11.9113C8.99204 12.0393 8.9684 12.1585 8.92004 12.2684C8.87566 12.3754 8.81033 12.4724 8.7279 12.5538C8.64547 12.6351 8.54759 12.6992 8.44004 12.7422C8.32804 12.7884 8.21022 12.8113 8.08622 12.8113C7.96285 12.8121 7.84051 12.7887 7.72622 12.7422C7.61794 12.6986 7.51915 12.6343 7.43531 12.5531C7.35267 12.4722 7.28735 12.3753 7.24331 12.2684C7.19664 12.1551 7.17315 12.0337 7.17422 11.9113Z" fill="#595F6D"/>
</g>
<defs>
<clipPath id="clip0_200_10834">
<rect width="16" height="16" fill="white"/>
</clipPath>
</defs>
</svg>
