<svg viewBox="0 0 34 34" fill="none" xmlns="http://www.w3.org/2000/svg">
<g clip-path="url(#clip0_1_3555)">
<path d="M17.0005 14.5722L24.2871 7.28568C24.9577 6.61512 26.0448 6.61512 26.7154 7.28568C27.3859 7.95623 27.3859 9.04341 26.7154 9.71396L19.4288 17.0005L26.7154 24.2871C27.3859 24.9577 27.3859 26.0448 26.7154 26.7154C26.0448 27.3859 24.9577 27.3859 24.2871 26.7154L17.0005 19.4288L9.71396 26.7154C9.04341 27.3859 7.95623 27.3859 7.28568 26.7154C6.61512 26.0448 6.61512 24.9577 7.28568 24.2871L14.5722 17.0005L7.28568 9.71396C6.61512 9.04341 6.61512 7.95623 7.28568 7.28568C7.95623 6.61512 9.04341 6.61512 9.71396 7.28568L17.0005 14.5722Z" fill="#EB5757"/>
</g>
<defs>
<clipPath id="clip0_1_3555">
<rect width="34" height="34" fill="white"/>
</clipPath>
</defs>
</svg>
