<svg xmlns="http://www.w3.org/2000/svg" width="20" height="20" viewBox="0 0 20 20" fill="none">
  <rect opacity="0.01" width="20" height="20" fill="#D8D8D8"/>
  <path d="M6.43536 1.20078C6.80845 0.498099 7.73446 0.317977 8.34356 0.829682L11.2938 3.30917L15.1424 3.17831C15.9356 3.15134 16.5533 3.86136 16.4168 4.64316L15.7508 8.45663L17.7928 11.7447C18.2108 12.4178 17.9048 13.305 17.1609 13.5777L13.5389 14.9059L11.7283 18.316C11.3552 19.0187 10.4292 19.1988 9.82012 18.6871L6.86993 16.2066L3.02129 16.3385C2.22813 16.3655 1.6104 15.6554 1.74688 14.8736L2.4129 11.0602L0.370904 7.77206C-0.0470666 7.099 0.258932 6.21185 1.00274 5.93906L4.62481 4.61093L6.43536 1.20078ZM5.34063 10.5533C4.834 10.4992 4.30754 10.8898 4.16485 11.4264L3.82012 12.7223L3.79961 12.816C3.7131 13.3133 4.00265 13.7403 4.4793 13.7916C4.98598 13.8459 5.51235 13.4551 5.65508 12.9185L5.99981 11.6227L6.02032 11.5289C6.10687 11.0314 5.81754 10.6044 5.34063 10.5533Z" fill="currentColor"/>
  <path d="M15.5036 17.0322L16.3858 17.9178" stroke="currentColor" stroke-width="1.875" stroke-linecap="round" stroke-linejoin="round"/>
</svg>