<svg width="16" height="17" viewBox="0 0 16 17" fill="none" xmlns="http://www.w3.org/2000/svg">
<path fill-rule="evenodd" clip-rule="evenodd" d="M12.6701 2.44935C13.3243 2.40081 13.9555 2.69887 14.3288 3.23282C14.7068 3.76367 14.7727 4.45334 14.5019 5.04502L10.8353 13.1697C10.3693 14.2355 9.21958 14.8391 8.06687 14.6236L8.04787 14.6202C6.88502 14.4216 6.01899 13.4481 5.967 12.2812L5.78957 9.14391L2.87358 7.90213C1.79387 7.44204 1.17239 6.31048 1.36914 5.16344C1.56612 4.01624 2.52988 3.15129 3.70226 3.06977L12.6701 2.44935ZM9.27991 7.26185C9.47494 7.12187 9.51844 6.85187 9.37706 6.65877C9.23567 6.46568 8.96294 6.42261 8.76791 6.56259L6.74763 7.99189C6.55259 8.13186 6.50909 8.40187 6.65048 8.59496C6.79186 8.78806 7.06459 8.83112 7.25963 8.69115L9.27991 7.26185Z" fill="currentColor"/>
</svg>
