<svg width="28" height="28" viewBox="0 0 28 28" fill="none" xmlns="http://www.w3.org/2000/svg">
<rect width="28" height="28" rx="14" fill="#1E71FF"/>
<path d="M18.67 7.94946C19.3242 7.90093 19.9559 8.19969 20.3292 8.73364C20.7069 9.26437 20.7727 9.95369 20.5021 10.5452L16.8351 18.6702C16.369 19.7358 15.2192 20.3398 14.0665 20.1243L14.048 20.1204C12.8851 19.9217 12.0189 18.9484 11.9669 17.7815L11.7901 14.6438L8.87413 13.4026C7.79443 12.9425 7.17249 11.8104 7.36925 10.6633C7.56639 9.51641 8.5301 8.65213 9.70225 8.57056L18.67 7.94946ZM15.3771 12.1594C15.2357 11.9663 14.9627 11.9228 14.7677 12.0627L12.7482 13.4924C12.5532 13.6323 12.5094 13.9019 12.6505 14.095C12.7919 14.2881 13.0648 14.3316 13.2599 14.1916L15.2804 12.762C15.4751 12.6219 15.5182 12.3524 15.3771 12.1594Z" fill="white"/>
</svg>
