<svg width="6" height="6" viewBox="0 0 6 6" fill="none" xmlns="http://www.w3.org/2000/svg">
<path d="M0.291667 5.70833C0.222223 5.63889 0.176389 5.55833 0.154167 5.46667C0.131945 5.37222 0.131945 5.27917 0.154167 5.1875C0.176389 5.09583 0.220834 5.01667 0.2875 4.95L2.24167 2.99583L0.2875 1.04583C0.220834 0.979166 0.176389 0.9 0.154167 0.808333C0.131945 0.716666 0.131945 0.625 0.154167 0.533333C0.176389 0.438889 0.222223 0.356944 0.291667 0.2875C0.358334 0.220833 0.4375 0.176389 0.529167 0.154166C0.623611 0.129166 0.716667 0.129166 0.808334 0.154166C0.902778 0.176389 0.983334 0.219444 1.05 0.283333L3 2.2375L4.95417 0.2875C5.02083 0.220833 5.09861 0.176389 5.1875 0.154166C5.27917 0.129166 5.37083 0.129166 5.4625 0.154166C5.55695 0.176389 5.6375 0.222222 5.70417 0.291666C5.77639 0.358333 5.82361 0.438889 5.84583 0.533333C5.86806 0.625 5.86806 0.716666 5.84583 0.808333C5.82361 0.9 5.77778 0.979166 5.70833 1.04583L3.7625 2.99583L5.70833 4.95C5.77778 5.01667 5.82361 5.09583 5.84583 5.1875C5.86806 5.27917 5.86806 5.37222 5.84583 5.46667C5.82361 5.55833 5.77639 5.6375 5.70417 5.70417C5.6375 5.77361 5.55695 5.82083 5.4625 5.84583C5.37083 5.86806 5.27917 5.86806 5.1875 5.84583C5.09861 5.82361 5.02083 5.77778 4.95417 5.70833L3 3.75833L1.05 5.7125C0.983334 5.77639 0.902778 5.82083 0.808334 5.84583C0.716667 5.86806 0.623611 5.86806 0.529167 5.84583C0.4375 5.82083 0.358334 5.775 0.291667 5.70833Z" fill="#3C3C43" fill-opacity="0.6"/>
</svg>
