<svg viewBox="0 0 28 28" fill="none" xmlns="http://www.w3.org/2000/svg">
<rect width="28" height="28" rx="14" fill="#F6F6F6"/>
<path d="M14.6709 9.6432C14.4529 9.88043 14.4685 10.2494 14.7058 10.4674C15.6433 11.3288 16.2296 12.5634 16.2296 13.9357C16.2296 15.308 15.6433 16.5425 14.7058 17.4039C14.4685 17.6219 14.4529 17.9909 14.6709 18.2281C14.8889 18.4654 15.2579 18.481 15.4951 18.263C16.663 17.1899 17.3963 15.648 17.3963 13.9357C17.3963 12.2233 16.663 10.6814 15.4951 9.60832C15.2579 9.39035 14.8889 9.40597 14.6709 9.6432Z" fill="#333333"/>
<path d="M11.2781 14.8893C10.5874 14.8893 10.3448 14.6467 10.3448 13.956C10.3448 13.2653 10.5874 13.0227 11.2781 13.0227C11.9688 13.0227 12.2114 13.2839 12.2114 13.956C12.2114 14.6281 11.9688 14.8893 11.2781 14.8893Z" fill="#333333"/>
<path d="M12.8218 11.3378C12.6039 11.575 12.6195 11.944 12.8567 12.162C13.3541 12.619 13.6645 13.273 13.6645 14.0004C13.6645 14.7278 13.3541 15.3819 12.8567 15.8389C12.6195 16.0568 12.6039 16.4259 12.8218 16.6631C13.0398 16.9003 13.4088 16.9159 13.6461 16.698C14.3738 16.0293 14.8312 15.0679 14.8312 14.0004C14.8312 12.933 14.3738 11.9715 13.6461 11.3029C13.4088 11.0849 13.0398 11.1006 12.8218 11.3378Z" fill="#333333"/>
<path d="M14.0002 21.7782C8.08908 21.7782 6.22241 19.8338 6.22241 14.0004C6.22241 8.1671 8.47797 6.22266 14.0002 6.22266C19.5224 6.22266 21.778 8.47821 21.778 14.0004C21.778 19.5227 19.9113 21.7782 14.0002 21.7782ZM19.135 8.86567C18.2041 7.9348 16.6403 7.38932 14.0002 7.38932C11.3226 7.38932 9.77036 7.87233 8.85233 8.76189C7.9425 9.64351 7.38908 11.186 7.38908 14.0004C7.38908 16.8621 7.8635 18.3889 8.7229 19.2552C9.5801 20.1193 11.1045 20.6115 14.0002 20.6115C16.8583 20.6115 18.3952 20.0561 19.2646 19.1517C20.1441 18.2367 20.6113 16.6877 20.6113 14.0004C20.6113 11.3603 20.0658 9.79654 19.135 8.86567Z" fill="#333333"/>
</svg>
