<svg viewBox="0 0 30 30" fill="none" xmlns="http://www.w3.org/2000/svg">
<path d="M4.1507 20.1133H5.35447C5.46083 20.113 5.56307 20.155 5.63837 20.2303C5.71368 20.3056 5.75573 20.4076 5.75518 20.514V24.2489H9.4973C9.60366 24.2487 9.70589 24.2907 9.7812 24.366C9.8565 24.4413 9.89855 24.5433 9.89828 24.6496V25.8493C9.89828 26.073 9.72101 26.25 9.4973 26.25H5.35447C4.46291 26.25 3.75 25.5385 3.75 24.6496V20.5123C3.74972 20.406 3.79177 20.3037 3.8668 20.2287C3.9421 20.1534 4.04434 20.1113 4.1507 20.1116V20.113V20.1133ZM20.5478 24.2489H24.2882V20.514C24.2877 20.4073 24.33 20.3051 24.4056 20.2298C24.4812 20.1545 24.5837 20.1124 24.6903 20.1133H25.849C25.9556 20.113 26.0576 20.155 26.1329 20.2303C26.2082 20.3054 26.2505 20.4076 26.25 20.514V24.6483C26.25 25.5398 25.5371 26.25 24.6469 26.25H20.5024C20.3961 26.2503 20.2938 26.2082 20.2188 26.1329C20.1435 26.0576 20.1014 25.9557 20.1017 25.8493V24.6496C20.1454 24.4276 20.3241 24.2489 20.5475 24.2489H20.5478ZM5.3531 3.75H9.49592C9.60228 3.74973 9.70452 3.79178 9.77982 3.86708C9.85513 3.94238 9.89718 4.04435 9.89663 4.15098V5.35035C9.89663 5.57242 9.71936 5.75106 9.49592 5.75106H5.7538V9.48603C5.75408 9.59239 5.71203 9.69463 5.63672 9.76966C5.56169 9.84496 5.45946 9.88701 5.3531 9.88674H4.14933C4.04324 9.88674 3.94128 9.84441 3.86653 9.76911C3.7915 9.69408 3.74972 9.59184 3.75 9.48603V5.3531C3.75 4.46017 4.46291 3.75 5.3531 3.75ZM25.8493 9.84194H24.6455C24.5392 9.84222 24.4369 9.80017 24.3619 9.72486C24.2866 9.64956 24.2445 9.5476 24.2448 9.44096V5.70626H20.5027C20.3966 5.70653 20.2946 5.66476 20.2193 5.58973C20.144 5.5147 20.1017 5.41301 20.1017 5.30665V4.15071C20.1014 4.04435 20.1435 3.94211 20.2188 3.86681C20.2941 3.79178 20.3961 3.74973 20.5027 3.75H24.6455C25.5371 3.75 26.25 4.46154 26.25 5.35035V9.48768C26.25 9.66632 26.0714 9.84359 25.8493 9.84359V9.84222V9.84194ZM9.31866 11.8878V10.6871C9.31838 10.5804 9.36043 10.4779 9.43601 10.4029C9.51159 10.3276 9.6141 10.2855 9.72074 10.2863H20.0569C20.1633 10.2861 20.2655 10.3281 20.3408 10.4034C20.4161 10.4787 20.4582 10.5807 20.4576 10.6871V11.8881C20.4576 12.1101 20.279 12.2874 20.0569 12.2874H15.869V20.6025C15.869 20.7088 15.8272 20.8111 15.7519 20.8861C15.6766 20.9611 15.5747 21.0034 15.4683 21.0032H14.2645C14.1579 21.0037 14.0559 20.9614 13.9806 20.8861C13.9053 20.8111 13.8633 20.7088 13.8636 20.6025V12.2874H9.67594C9.4973 12.2874 9.31866 12.1101 9.31866 11.8878Z" fill="currentColor"/>
</svg>
