<svg width="20" height="20" viewBox="0 0 20 20" fill="none" xmlns="http://www.w3.org/2000/svg">
<path d="M10.2343 13.417C9.92745 13.417 9.67876 13.1683 9.67876 12.8614V5.20945L6.90103 7.9249C6.75911 8.06379 6.55381 8.11652 6.36263 8.06314C6.17144 8.00975 6.02323 7.85828 5.97375 7.66579C5.92427 7.47352 5.98134 7.26931 6.12327 7.13043L9.84651 3.4916C10.065 3.27806 10.4151 3.2811 10.6299 3.49833L14.2397 7.13607C14.4495 7.35503 14.445 7.7016 14.2299 7.91513C14.0146 8.12846 13.6678 8.12997 13.4508 7.91839L10.7899 5.23745V12.8614C10.7899 13.1683 10.5412 13.417 10.2343 13.417Z" fill="#5D5D5D"/>
<path d="M3.88892 11.333C4.19577 11.333 4.44447 11.5817 4.44447 11.8886V14.5552C4.44447 14.862 4.69316 15.1107 5.00001 15.1107H14.9998C15.3067 15.1107 15.5554 14.862 15.5554 14.5552V11.8886C15.5554 11.5817 15.8041 11.333 16.1109 11.333C16.4178 11.333 16.6665 11.5817 16.6665 11.8886V14.5552C16.6665 15.4757 15.9204 16.2218 14.9998 16.2218H5.00001C4.07945 16.2218 3.33337 15.4757 3.33337 14.5552V11.8886C3.33337 11.5817 3.58207 11.333 3.88892 11.333Z" fill="#5D5D5D"/>
</svg>
