<svg xmlns="http://www.w3.org/2000/svg" width="20" height="20" viewBox="0 0 20 20" fill="none">
  <path d="M16.1923 5.12276C16.7799 4.78588 17.4247 4.67298 17.9852 4.96553C18.6257 5.3 18.8963 6.02828 18.8964 6.82491V13.1745C18.8964 13.9706 18.6259 14.6995 17.9843 15.0329C17.3424 15.3663 16.5921 15.1675 15.9432 14.7097V14.7106L13.6268 13.0856C13.4767 12.9804 13.3876 12.8081 13.3876 12.6247V7.3669C13.3876 7.18363 13.4768 7.01125 13.6268 6.90596L15.9432 5.28096L15.9442 5.27999L16.1923 5.12276Z" fill="currentColor"/>
  <path d="M10.4426 2.42032C11.7897 2.42036 12.8665 2.63735 13.5813 3.35196C14.296 4.06685 14.5129 5.14431 14.5129 6.49161V13.5082C14.5129 14.8565 14.2942 15.9334 13.5784 16.6479C12.8628 17.3621 11.7862 17.5785 10.4426 17.5785H5.17603C3.72468 17.5785 2.67505 17.09 2.00122 16.2816C1.3427 15.4915 1.1048 14.4702 1.10474 13.5082V6.49161C1.10474 5.14419 1.32149 4.06685 2.03638 3.35196C2.75126 2.63707 3.82861 2.42032 5.17603 2.42032H10.4426ZM9.58228 6.3168C8.6988 6.31701 7.98267 7.03289 7.98267 7.91641C7.98272 8.79989 8.69883 9.51581 9.58228 9.51602C10.4659 9.51602 11.1828 8.80002 11.1829 7.91641C11.1829 7.03276 10.4659 6.3168 9.58228 6.3168Z" fill="currentColor"/>
</svg>