<svg width="145" height="34" viewBox="0 0 145 34" fill="none" xmlns="http://www.w3.org/2000/svg">
<rect x="11.375" y="13.6692" width="2.36111" height="6.4115" rx="1.18056" fill="#F3F3F3"/>
<rect x="7.625" y="13.6692" width="2.36111" height="6.4115" rx="1.18056" fill="#F3F3F3"/>
<rect x="3.875" y="13.6692" width="2.36111" height="6.4115" rx="1.18056" fill="#F3F3F3"/>
<rect x="0.0554199" y="13.6692" width="2.36111" height="6.4115" rx="1.18056" fill="#F3F3F3"/>
<rect x="52.625" y="13.5" width="2.36111" height="6.4115" rx="1.18056" fill="#F3F3F3"/>
<rect x="67.625" y="13.5" width="2.36111" height="6.4115" rx="1.18056" fill="#F3F3F3"/>
<rect x="82.625" y="13.5" width="2.36111" height="6.4115" rx="1.18056" fill="#F3F3F3"/>
<rect x="97.625" y="13.5" width="2.36111" height="6.4115" rx="1.18056" fill="#F3F3F3"/>
<rect x="48.875" y="13.5" width="2.36111" height="6.4115" rx="1.18056" fill="#F3F3F3"/>
<rect x="63.875" y="13.5" width="2.36111" height="6.4115" rx="1.18056" fill="#F3F3F3"/>
<rect x="78.875" y="13.5" width="2.36111" height="6.4115" rx="1.18056" fill="#F3F3F3"/>
<rect x="93.875" y="13.5" width="2.36111" height="6.4115" rx="1.18056" fill="#F3F3F3"/>
<rect x="45.125" y="13.5" width="2.36111" height="6.4115" rx="1.18056" fill="#F3F3F3"/>
<rect x="60.125" y="13.5" width="2.36111" height="6.4115" rx="1.18056" fill="#F3F3F3"/>
<rect x="75.125" y="13.5" width="2.36111" height="6.4115" rx="1.18056" fill="#F3F3F3"/>
<rect x="90.125" y="13.5" width="2.36111" height="6.4115" rx="1.18056" fill="#F3F3F3"/>
<rect x="41.375" y="13.5" width="2.36111" height="6.4115" rx="1.18056" fill="#F3F3F3"/>
<rect x="56.375" y="13.5" width="2.36111" height="6.4115" rx="1.18056" fill="#F3F3F3"/>
<rect x="71.375" y="13.5" width="2.36111" height="6.4115" rx="1.18056" fill="#F3F3F3"/>
<rect x="86.375" y="13.5" width="2.36111" height="6.4115" rx="1.18056" fill="#F3F3F3"/>
<rect x="15.125" y="10.0056" width="2.36111" height="13.7389" rx="1.18056" fill="#F3F3F3"/>
<rect width="2.36111" height="13.7389" rx="1.18056" transform="matrix(-1 0 0 1 39.875 10.0386)" fill="#F3F3F3"/>
<rect x="18.875" y="6.3418" width="2.36111" height="21.0664" rx="1.18056" fill="#F3F3F3"/>
<rect width="2.36111" height="21.0664" rx="1.18056" transform="matrix(-1 0 0 1 36.125 6.375)" fill="#F3F3F3"/>
<rect x="22.625" y="7.48682" width="2.36111" height="18.7765" rx="1.18056" fill="#F3F3F3"/>
<rect width="2.36111" height="18.7765" rx="1.18056" transform="matrix(-1 0 0 1 32.375 7.51978)" fill="#F3F3F3"/>
<rect x="26.375" y="3.823" width="2.36111" height="26.104" rx="1.18056" fill="#F3F3F3"/>
<rect x="112.625" y="11.6084" width="2.36111" height="10.5332" rx="1.18056" fill="#F3F3F3"/>
<rect x="116.375" y="4.28101" width="2.36111" height="25.1881" rx="1.18056" fill="#F3F3F3"/>
<rect x="120.125" y="5.65479" width="2.36111" height="22.4403" rx="1.18056" fill="#F3F3F3"/>
<rect x="123.875" y="11.6084" width="2.36111" height="10.5332" rx="1.18056" fill="#F3F3F3"/>
<rect x="127.625" y="8.17358" width="2.36111" height="17.4027" rx="1.18056" fill="#F3F3F3"/>
<rect width="2.36111" height="22.4403" rx="1.18056" transform="matrix(-1 0 0 1 111.125 5.625)" fill="#F3F3F3"/>
<rect width="2.36111" height="10.5332" rx="1.18056" transform="matrix(-1 0 0 1 107.375 11.5786)" fill="#F3F3F3"/>
<rect width="2.36111" height="17.4027" rx="1.18056" transform="matrix(-1 0 0 1 103.625 8.1438)" fill="#F3F3F3"/>
<rect x="131.375" y="13.6692" width="2.36111" height="6.4115" rx="1.18056" fill="#F3F3F3"/>
<rect x="135.125" y="13.6692" width="2.36111" height="6.4115" rx="1.18056" fill="#F3F3F3"/>
<rect x="138.875" y="13.6692" width="2.36111" height="6.4115" rx="1.18056" fill="#F3F3F3"/>
<rect x="142.625" y="13.6692" width="2.36111" height="6.4115" rx="1.18056" fill="#F3F3F3"/>
</svg>
