<svg xmlns="http://www.w3.org/2000/svg" width="20" height="20" viewBox="0 0 20 20" fill="none">
  <path d="M2.92493 9.45894V8.04195C2.92493 7.65535 3.23852 7.34175 3.62512 7.34175C4.01172 7.34175 4.32532 7.65535 4.32532 8.04195V9.45894C4.32549 12.5889 6.87016 15.1337 10.0001 15.1337C13.1301 15.1337 15.6748 12.5889 15.6749 9.45894V8.04195C15.6749 7.65535 15.9885 7.34175 16.3751 7.34175C16.7617 7.34175 17.0753 7.65535 17.0753 8.04195V9.45894C17.0751 13.3621 13.9033 16.5332 10.0001 16.5332C6.09696 16.5332 2.9251 13.3621 2.92493 9.45894Z" fill="currentColor"/>
  <path d="M10.2167 0.809723C12.434 0.922311 14.1962 2.75576 14.1962 5.00113V9.58316C14.1962 11.8285 12.434 13.662 10.2167 13.7746L10.0009 13.7794C7.75542 13.7794 5.922 12.0173 5.80945 9.79996L5.80457 9.58316V5.00113C5.80457 2.68312 7.68284 0.80484 10.0009 0.80484L10.2167 0.809723ZM10.618 6.53433C10.1451 6.44143 9.65917 6.45736 9.19031 6.58121C8.89008 6.66064 8.71158 6.96842 8.79089 7.26871C8.87028 7.569 9.17807 7.74843 9.47839 7.6691C9.78228 7.5889 10.0951 7.57864 10.4012 7.63882L10.5321 7.6691L10.6444 7.68668C10.9057 7.70159 11.1501 7.53153 11.2196 7.26871C11.2889 7.00608 11.1608 6.73749 10.9266 6.62125L10.8192 6.58121L10.618 6.53433ZM11.1874 4.77359C10.3584 4.5104 9.46864 4.52848 8.64832 4.82925C8.35681 4.9362 8.20761 5.25937 8.31433 5.55093C8.42131 5.84254 8.74437 5.99283 9.03601 5.88589C9.58272 5.68548 10.1713 5.66042 10.7284 5.8107L10.9647 5.88589L11.076 5.91422C11.3345 5.95292 11.5928 5.80586 11.6864 5.55093C11.7798 5.29578 11.6775 5.01647 11.455 4.87906L11.3524 4.82925L11.1874 4.77359Z" fill="currentColor"/>
  <path d="M9.29993 18.3336V15.8336C9.29993 15.447 9.61352 15.1334 10.0001 15.1334C10.3867 15.1334 10.7003 15.447 10.7003 15.8336V18.3336C10.7003 18.7202 10.3867 19.0338 10.0001 19.0338C9.61352 19.0338 9.29993 18.7202 9.29993 18.3336Z" fill="currentColor"/>
</svg>