<svg xmlns="http://www.w3.org/2000/svg" viewBox="0 0 20 20" fill="none">
  <g opacity="0.66">
    <path fill-rule="evenodd" clip-rule="evenodd" d="M9.48579 2.56605C9.17413 2.43772 8.81579 2.50855 8.57746 2.74688L4.99996 6.66855H2.49996C2.04163 6.66855 1.66663 7.04438 1.66663 7.50188V12.5019C1.66663 12.9602 2.04163 13.3352 2.49996 13.3352H4.99996L8.57746 17.2585C8.81579 17.4968 9.17413 17.5685 9.48579 17.4393C9.79746 17.3102 9.99996 17.006 9.99996 16.6685V3.33522C9.99996 2.99938 9.79746 2.69355 9.48579 2.56605ZM11.6666 4.16848V5.83514C13.9641 5.83514 15.8333 7.70514 15.8333 10.0019C15.8333 12.2993 13.9641 14.1685 11.6666 14.1685V15.8352C14.8833 15.8352 17.5 13.2193 17.5 10.0019C17.5 6.78598 14.8833 4.16848 11.6666 4.16848ZM11.6666 7.50181C13.045 7.50181 14.1666 8.62435 14.1666 10.0019C14.1666 11.381 13.045 12.5019 11.6666 12.5019V10.8352C12.1258 10.8352 12.5 10.461 12.5 10.0019C12.5 9.54268 12.1258 9.16852 11.6666 9.16852V7.50181Z" fill="#000000" style="mix-blend-mode:saturation"/>
    <path fill-rule="evenodd" clip-rule="evenodd" d="M9.48579 2.56605C9.17413 2.43772 8.81579 2.50855 8.57746 2.74688L4.99996 6.66855H2.49996C2.04163 6.66855 1.66663 7.04438 1.66663 7.50188V12.5019C1.66663 12.9602 2.04163 13.3352 2.49996 13.3352H4.99996L8.57746 17.2585C8.81579 17.4968 9.17413 17.5685 9.48579 17.4393C9.79746 17.3102 9.99996 17.006 9.99996 16.6685V3.33522C9.99996 2.99938 9.79746 2.69355 9.48579 2.56605ZM11.6666 4.16848V5.83514C13.9641 5.83514 15.8333 7.70514 15.8333 10.0019C15.8333 12.2993 13.9641 14.1685 11.6666 14.1685V15.8352C14.8833 15.8352 17.5 13.2193 17.5 10.0019C17.5 6.78598 14.8833 4.16848 11.6666 4.16848ZM11.6666 7.50181C13.045 7.50181 14.1666 8.62435 14.1666 10.0019C14.1666 11.381 13.045 12.5019 11.6666 12.5019V10.8352C12.1258 10.8352 12.5 10.461 12.5 10.0019C12.5 9.54268 12.1258 9.16852 11.6666 9.16852V7.50181Z" fill="#000000" style="mix-blend-mode:difference"/>
    <path fill-rule="evenodd" clip-rule="evenodd" d="M9.48579 2.56605C9.17413 2.43772 8.81579 2.50855 8.57746 2.74688L4.99996 6.66855H2.49996C2.04163 6.66855 1.66663 7.04438 1.66663 7.50188V12.5019C1.66663 12.9602 2.04163 13.3352 2.49996 13.3352H4.99996L8.57746 17.2585C8.81579 17.4968 9.17413 17.5685 9.48579 17.4393C9.79746 17.3102 9.99996 17.006 9.99996 16.6685V3.33522C9.99996 2.99938 9.79746 2.69355 9.48579 2.56605ZM11.6666 4.16848V5.83514C13.9641 5.83514 15.8333 7.70514 15.8333 10.0019C15.8333 12.2993 13.9641 14.1685 11.6666 14.1685V15.8352C14.8833 15.8352 17.5 13.2193 17.5 10.0019C17.5 6.78598 14.8833 4.16848 11.6666 4.16848ZM11.6666 7.50181C13.045 7.50181 14.1666 8.62435 14.1666 10.0019C14.1666 11.381 13.045 12.5019 11.6666 12.5019V10.8352C12.1258 10.8352 12.5 10.461 12.5 10.0019C12.5 9.54268 12.1258 9.16852 11.6666 9.16852V7.50181Z" fill="#000000" style="mix-blend-mode:saturation"/>
    <path fill-rule="evenodd" clip-rule="evenodd" d="M9.48579 2.56605C9.17413 2.43772 8.81579 2.50855 8.57746 2.74688L4.99996 6.66855H2.49996C2.04163 6.66855 1.66663 7.04438 1.66663 7.50188V12.5019C1.66663 12.9602 2.04163 13.3352 2.49996 13.3352H4.99996L8.57746 17.2585C8.81579 17.4968 9.17413 17.5685 9.48579 17.4393C9.79746 17.3102 9.99996 17.006 9.99996 16.6685V3.33522C9.99996 2.99938 9.79746 2.69355 9.48579 2.56605ZM11.6666 4.16848V5.83514C13.9641 5.83514 15.8333 7.70514 15.8333 10.0019C15.8333 12.2993 13.9641 14.1685 11.6666 14.1685V15.8352C14.8833 15.8352 17.5 13.2193 17.5 10.0019C17.5 6.78598 14.8833 4.16848 11.6666 4.16848ZM11.6666 7.50181C13.045 7.50181 14.1666 8.62435 14.1666 10.0019C14.1666 11.381 13.045 12.5019 11.6666 12.5019V10.8352C12.1258 10.8352 12.5 10.461 12.5 10.0019C12.5 9.54268 12.1258 9.16852 11.6666 9.16852V7.50181Z" fill="#000000" style="mix-blend-mode:overlay"/>
    <path fill-rule="evenodd" clip-rule="evenodd" d="M9.48579 2.56605C9.17413 2.43772 8.81579 2.50855 8.57746 2.74688L4.99996 6.66855H2.49996C2.04163 6.66855 1.66663 7.04438 1.66663 7.50188V12.5019C1.66663 12.9602 2.04163 13.3352 2.49996 13.3352H4.99996L8.57746 17.2585C8.81579 17.4968 9.17413 17.5685 9.48579 17.4393C9.79746 17.3102 9.99996 17.006 9.99996 16.6685V3.33522C9.99996 2.99938 9.79746 2.69355 9.48579 2.56605ZM11.6666 4.16848V5.83514C13.9641 5.83514 15.8333 7.70514 15.8333 10.0019C15.8333 12.2993 13.9641 14.1685 11.6666 14.1685V15.8352C14.8833 15.8352 17.5 13.2193 17.5 10.0019C17.5 6.78598 14.8833 4.16848 11.6666 4.16848ZM11.6666 7.50181C13.045 7.50181 14.1666 8.62435 14.1666 10.0019C14.1666 11.381 13.045 12.5019 11.6666 12.5019V10.8352C12.1258 10.8352 12.5 10.461 12.5 10.0019C12.5 9.54268 12.1258 9.16852 11.6666 9.16852V7.50181Z" fill="#000000" style="mix-blend-mode:overlay"/>
    <path fill-rule="evenodd" clip-rule="evenodd" d="M9.48579 2.56605C9.17413 2.43772 8.81579 2.50855 8.57746 2.74688L4.99996 6.66855H2.49996C2.04163 6.66855 1.66663 7.04438 1.66663 7.50188V12.5019C1.66663 12.9602 2.04163 13.3352 2.49996 13.3352H4.99996L8.57746 17.2585C8.81579 17.4968 9.17413 17.5685 9.48579 17.4393C9.79746 17.3102 9.99996 17.006 9.99996 16.6685V3.33522C9.99996 2.99938 9.79746 2.69355 9.48579 2.56605ZM11.6666 4.16848V5.83514C13.9641 5.83514 15.8333 7.70514 15.8333 10.0019C15.8333 12.2993 13.9641 14.1685 11.6666 14.1685V15.8352C14.8833 15.8352 17.5 13.2193 17.5 10.0019C17.5 6.78598 14.8833 4.16848 11.6666 4.16848ZM11.6666 7.50181C13.045 7.50181 14.1666 8.62435 14.1666 10.0019C14.1666 11.381 13.045 12.5019 11.6666 12.5019V10.8352C12.1258 10.8352 12.5 10.461 12.5 10.0019C12.5 9.54268 12.1258 9.16852 11.6666 9.16852V7.50181Z" fill="#000000" style="mix-blend-mode:overlay"/>
    <path fill-rule="evenodd" clip-rule="evenodd" d="M9.48579 2.56605C9.17413 2.43772 8.81579 2.50855 8.57746 2.74688L4.99996 6.66855H2.49996C2.04163 6.66855 1.66663 7.04438 1.66663 7.50188V12.5019C1.66663 12.9602 2.04163 13.3352 2.49996 13.3352H4.99996L8.57746 17.2585C8.81579 17.4968 9.17413 17.5685 9.48579 17.4393C9.79746 17.3102 9.99996 17.006 9.99996 16.6685V3.33522C9.99996 2.99938 9.79746 2.69355 9.48579 2.56605ZM11.6666 4.16848V5.83514C13.9641 5.83514 15.8333 7.70514 15.8333 10.0019C15.8333 12.2993 13.9641 14.1685 11.6666 14.1685V15.8352C14.8833 15.8352 17.5 13.2193 17.5 10.0019C17.5 6.78598 14.8833 4.16848 11.6666 4.16848ZM11.6666 7.50181C13.045 7.50181 14.1666 8.62435 14.1666 10.0019C14.1666 11.381 13.045 12.5019 11.6666 12.5019V10.8352C12.1258 10.8352 12.5 10.461 12.5 10.0019C12.5 9.54268 12.1258 9.16852 11.6666 9.16852V7.50181Z" fill="#000000" style="mix-blend-mode:overlay"/>
  </g>
</svg>