<svg viewBox="0 0 20 20" fill="none" xmlns="http://www.w3.org/2000/svg">
<g opacity="0.66">
<path fill-rule="evenodd" clip-rule="evenodd" d="M9.00129 2.52038C9.16299 2.48774 9.33074 2.50383 9.48329 2.56661C9.63548 2.62912 9.76575 2.73529 9.85769 2.87172C9.94964 3.00816 9.99914 3.16875 9.99996 3.33327V16.6666C10.0009 16.8321 9.95257 16.9942 9.86107 17.1321C9.76957 17.2701 9.63906 17.3776 9.48619 17.4411C9.33332 17.5046 9.16501 17.5211 9.00273 17.4885C8.84044 17.4559 8.69152 17.3758 8.57496 17.2583L4.99996 13.3333H2.49996C2.27895 13.3333 2.06698 13.2455 1.9107 13.0892C1.75442 12.9329 1.66663 12.721 1.66663 12.4999V7.49994C1.66663 7.27893 1.75442 7.06697 1.9107 6.91069C2.06698 6.75441 2.27895 6.66661 2.49996 6.66661H4.99996L8.57496 2.74994C8.69122 2.63291 8.83959 2.55302 9.00129 2.52038ZM17.5 8.55833L16.4417 7.5L14.5833 9.35833L12.725 7.5L11.6667 8.55833L13.525 10.4167L11.6667 12.275L12.725 13.3333L14.5833 11.475L16.4417 13.3333L17.5 12.275L15.6417 10.4167L17.5 8.55833Z" fill="#000000"/>
</g>
</svg>
